<svg xmlns="http://www.w3.org/2000/svg" viewBox="0 0 1152 476.273"><defs><style>.d{fill:#fae2d7;}</style></defs><g id="a"></g><g id="b"><g id="c"><g><path class="d" d="M146.773,165.332c-2.024,5.853-5.117,11.701-9.275,17.549-4.17,5.85-9.227,11.081-15.185,15.689-5.964,4.614-12.711,8.384-20.246,11.305-7.537,2.921-15.692,4.384-24.46,4.384-10.58,0-20.532-2.074-29.867-6.241-9.335-4.161-17.543-9.838-24.627-17.039-7.087-7.198-12.714-15.575-16.872-25.14-4.167-9.555-6.241-19.846-6.241-30.874s2.074-21.31,6.241-30.871c4.158-9.561,9.785-17.939,16.872-25.14,7.084-7.195,15.292-12.872,24.627-17.039,9.335-4.158,19.286-6.241,29.867-6.241,10.121,0,19.68,1.913,28.677,5.734,8.995,3.83,16.872,9.227,23.623,16.198,6.748,6.974,12.088,15.352,16.026,25.137,3.931,9.785,5.904,20.529,5.904,32.221,0,1.803-.116,3.544-.337,5.231-.227,1.69-.453,3.323-.677,4.894-.226,1.803-.453,3.49-.674,5.061H42.173c1.8,7.651,5.624,14.062,11.475,19.232,5.847,5.18,13.835,7.761,23.959,7.761,5.168,0,9.501-.557,12.988-1.687,3.481-1.124,6.461-2.471,8.941-4.05,2.7-1.797,4.947-3.821,6.748-6.074h40.489ZM77.606,92.789c-10.124,0-18.392,2.927-24.803,8.771-6.411,5.853-10.518,13.051-12.315,21.596H114.718c-1.8-8.545-5.901-15.742-12.315-21.596-6.411-5.845-14.675-8.771-24.797-8.771"></path><rect class="d" x="176.498" y="57.36" width="38.808" height="155.213"></rect><path class="d" d="M316.443,271.619c-11.475,0-21.882-1.738-31.211-5.228-9.335-3.484-17.325-8.208-23.956-14.172-6.637-5.958-11.758-12.765-15.352-20.413-3.603-7.645-5.401-15.742-5.401-24.293,0-9.668,1.738-17.885,5.228-24.633,3.487-6.751,7.368-12.148,11.644-16.198,4.944-4.721,10.568-8.545,16.872-11.472-4.724-2.921-9.001-6.411-12.825-10.458-3.153-3.594-6.02-7.982-8.604-13.158-2.587-5.174-3.88-11.358-3.88-18.559,0-7.645,1.63-14.899,4.894-21.763,3.261-6.861,7.812-12.932,13.665-18.222,5.848-5.281,12.935-9.502,21.256-12.652,8.321-3.147,17.549-4.724,27.67-4.724s19.343,1.577,27.667,4.724c8.321,3.15,15.406,7.371,21.256,12.652,5.848,5.29,10.405,11.361,13.665,18.222,3.261,6.864,4.897,14.118,4.897,21.763,0,7.201-1.353,13.385-4.05,18.559-2.7,5.177-5.627,9.564-8.774,13.158-3.827,4.047-7.988,7.537-12.485,10.458,6.298,2.927,11.922,6.751,16.872,11.472,4.271,4.05,8.151,9.448,11.641,16.198,3.484,6.748,5.231,14.965,5.231,24.633,0,8.551-1.806,16.648-5.401,24.293-3.6,7.648-8.721,14.455-15.352,20.413-6.64,5.964-14.622,10.688-23.956,14.172-9.338,3.49-19.736,5.228-31.211,5.228m0-96.162c-11.024,0-19.686,2.927-25.983,8.774-6.298,5.851-9.448,13.048-9.448,21.593s3.15,15.748,9.448,21.596c6.298,5.851,14.959,8.774,25.983,8.774s19.682-2.924,25.98-8.774c6.298-5.848,9.451-13.045,9.451-21.596s-3.153-15.742-9.451-21.593c-6.298-5.848-14.962-8.774-25.98-8.774m0-33.741c8.545,0,15.462-2.53,20.752-7.591,5.281-5.064,7.928-10.968,7.928-17.715s-2.647-12.652-7.928-17.715c-5.29-5.061-12.208-7.591-20.752-7.591s-15.468,2.53-20.753,7.591c-5.287,5.064-7.928,10.968-7.928,17.715s2.641,12.652,7.928,17.715c5.284,5.061,12.202,7.591,20.753,7.591"></path><path class="d" d="M500.246,55.674c8.321,0,16.139,1.517,23.453,4.554,7.305,3.037,13.549,7.424,18.726,13.158,5.174,5.737,9.281,12.655,12.315,20.752,3.037,8.098,4.554,17.209,4.554,27.33v91.105h-38.802V126.53c0-10.121-2.986-18.27-8.941-24.463-5.964-6.181-13.665-9.278-23.113-9.278s-17.155,3.097-23.116,9.278c-5.961,6.193-8.941,14.342-8.941,24.463v86.044h-38.799V0h38.799V72.543c2.924-3.147,6.414-5.955,10.461-8.431,3.597-2.027,8.151-3.937,13.668-5.74,5.511-1.797,12.088-2.697,19.736-2.697"></path><path class="d" d="M600.794,20.244h33.744V57.362h33.744v35.428h-33.744v64.111c0,6.745,1.967,12.091,5.904,16.026,3.931,3.937,9.278,5.904,16.029,5.904,1.797,0,3.255-.054,4.384-.17,1.124-.11,2.137-.277,3.04-.507,.897-.22,1.794-.557,2.697-1.01v33.741c-1.577,.677-3.374,1.24-5.397,1.687-3.83,1.124-8.214,1.687-13.159,1.687-7.654,0-14.678-1.296-21.092-3.88-6.411-2.581-11.925-6.351-16.529-11.302-4.617-4.944-8.214-10.798-10.801-17.546-2.59-6.748-3.877-14.392-3.877-22.946V92.79h-23.62V60.732h10.121c12.369,0,18.556-6.181,18.556-18.556V20.244Z"></path><path class="d" d="M827.414,165.332c-2.027,5.853-5.12,11.701-9.278,17.549-4.167,5.85-9.227,11.081-15.185,15.689-5.964,4.614-12.711,8.384-20.246,11.305-7.537,2.921-15.689,4.384-24.46,4.384-10.577,0-20.532-2.074-29.864-6.241-9.335-4.161-17.546-9.838-24.63-17.039-7.084-7.198-12.711-15.575-16.872-25.14-4.167-9.555-6.241-19.846-6.241-30.874s2.074-21.31,6.241-30.871c4.161-9.561,9.788-17.939,16.872-25.14,7.084-7.195,15.295-12.872,24.63-17.039,9.332-4.158,19.286-6.241,29.864-6.241,10.121,0,19.682,1.913,28.68,5.734,8.995,3.83,16.869,9.227,23.62,16.198,6.748,6.974,12.088,15.352,16.029,25.137,3.931,9.785,5.901,20.529,5.901,32.221,0,1.803-.116,3.544-.337,5.231-.226,1.69-.453,3.323-.677,4.894-.226,1.803-.453,3.49-.674,5.061h-107.974c1.8,7.651,5.621,14.062,11.474,19.232,5.845,5.18,13.835,7.761,23.956,7.761,5.168,0,9.501-.557,12.988-1.687,3.484-1.124,6.461-2.471,8.941-4.05,2.7-1.797,4.947-3.821,6.751-6.074h40.489Zm-69.169-72.543c-10.122,0-18.392,2.927-24.8,8.771-6.414,5.853-10.521,13.051-12.318,21.596h74.233c-1.803-8.545-5.904-15.742-12.318-21.596-6.408-5.845-14.675-8.771-24.797-8.771"></path><path class="d" d="M992.168,165.332c-2.027,5.853-5.123,11.701-9.278,17.549-4.166,5.85-9.23,11.081-15.188,15.689-5.964,4.614-12.711,8.384-20.246,11.305-7.537,2.921-15.689,4.384-24.46,4.384-10.577,0-20.529-2.074-29.864-6.241-9.335-4.161-17.543-9.838-24.63-17.039-7.084-7.198-12.711-15.575-16.869-25.14-4.167-9.555-6.244-19.846-6.244-30.874s2.077-21.31,6.244-30.871c4.158-9.561,9.785-17.939,16.869-25.14,7.088-7.195,15.295-12.872,24.63-17.039,9.335-4.158,19.286-6.241,29.864-6.241,10.121,0,19.682,1.913,28.68,5.734,8.995,3.83,16.872,9.227,23.62,16.198,6.748,6.974,12.088,15.352,16.029,25.137,3.931,9.785,5.904,20.529,5.904,32.221,0,1.803-.116,3.544-.337,5.231-.229,1.69-.453,3.323-.677,4.894-.229,1.803-.453,3.49-.674,5.061h-107.977c1.8,7.651,5.621,14.062,11.474,19.232,5.847,5.18,13.835,7.761,23.956,7.761,5.171,0,9.501-.557,12.988-1.687,3.487-1.124,6.464-2.471,8.944-4.05,2.7-1.797,4.944-3.821,6.748-6.074h40.492Zm-69.172-72.543c-10.122,0-18.389,2.927-24.8,8.771-6.414,5.853-10.521,13.051-12.315,21.596h74.23c-1.803-8.545-5.901-15.742-12.318-21.596-6.408-5.845-14.675-8.771-24.797-8.771"></path><path class="d" d="M1089.575,55.674c9.221,0,17.656,1.517,25.306,4.554,7.648,3.037,14.225,7.424,19.739,13.158,5.511,5.737,9.785,12.655,12.822,20.752,3.037,8.098,4.557,17.209,4.557,27.33v91.105h-38.805V126.53c0-10.121-2.983-18.27-8.941-24.463-5.961-6.181-13.665-9.278-23.113-9.278s-17.155,3.097-23.113,9.278c-5.964,6.193-8.941,14.342-8.941,24.463v86.044h-38.802V57.361h28.68l6.748,15.182c3.818-3.147,7.982-5.955,12.485-8.431,3.821-2.027,8.375-3.937,13.665-5.74,5.281-1.797,11.188-2.697,17.713-2.697"></path><path class="d" d="M511.89,418.91h-21.933v57.364h-40.489v-57.364h-92.792v-37.115l87.728-118.095h45.552v114.721h21.933v40.489Zm-62.421-40.489v-62.421l-47.239,62.421h47.239Z"></path><path class="d" d="M673.848,341.304c0,11.475-1.97,22.049-5.901,31.72-3.94,9.671-9.448,18.049-16.535,25.137-7.084,7.084-15.468,12.598-25.14,16.532-9.671,3.937-20.243,5.904-31.714,5.904s-22.052-1.967-31.717-5.904c-9.674-3.934-18.052-9.448-25.14-16.532-7.087-7.087-12.598-15.465-16.529-25.137-3.943-9.671-5.907-20.246-5.907-31.72s1.964-22.043,5.907-31.717c3.931-9.668,9.442-18.052,16.529-25.137,7.087-7.087,15.465-12.595,25.14-16.532,9.666-3.934,20.246-5.904,31.717-5.904s22.043,1.97,31.714,5.904c9.671,3.937,18.055,9.445,25.14,16.532,7.087,7.084,12.595,15.468,16.535,25.137,3.931,9.674,5.901,20.246,5.901,31.717m-118.092,0c0,11.925,3.711,21.656,11.132,29.187,7.424,7.54,16.642,11.302,27.67,11.302s20.246-3.761,27.667-11.302c7.424-7.531,11.135-17.262,11.135-29.187s-3.711-21.647-11.135-29.184c-7.421-7.534-16.648-11.305-27.667-11.305s-20.246,3.77-27.67,11.305c-7.421,7.537-11.132,17.262-11.132,29.184"></path><path class="d" d="M759.421,262.012c1.8,0,3.374,.116,4.724,.337,1.35,.227,2.584,.453,3.714,.674,1.121,.229,2.244,.456,3.374,.677v40.489c-1.129-.221-2.363-.447-3.711-.674-1.129-.221-2.533-.45-4.22-.674-1.687-.224-3.544-.34-5.567-.34-9.448,0-17.155,3.097-23.113,9.281-5.964,6.187-8.941,14.339-8.941,24.463v82.667h-38.805v-155.213h28.683l6.748,16.872c2.697-3.377,5.955-6.411,9.782-9.111,3.15-2.474,7.031-4.667,11.641-6.581,4.608-1.907,9.838-2.867,15.692-2.867"></path><path class="d" d="M812.891,226.582h33.741v37.118h33.744v35.428h-33.744v64.111c0,6.745,1.964,12.091,5.907,16.026,3.931,3.937,9.278,5.904,16.026,5.904,1.797,0,3.255-.054,4.384-.167,1.124-.113,2.137-.28,3.04-.507,.897-.224,1.794-.56,2.7-1.013v33.741c-1.577,.677-3.377,1.24-5.401,1.687-3.83,1.124-8.214,1.687-13.158,1.687-7.651,0-14.678-1.296-21.089-3.88-6.411-2.581-11.928-6.351-16.532-11.302-4.614-4.944-8.214-10.798-10.798-17.546-2.59-6.748-3.88-14.392-3.88-22.946v-65.795h-23.62v-32.054h10.121c12.372,0,18.559-6.184,18.559-18.559v-21.933Z"></path><path class="d" d="M893.175,263.699h40.489l38.802,101.226,35.431-101.226h40.489c-11.021,28.344-21.033,53.987-30.03,76.93-3.827,9.904-7.591,19.572-11.302,29.017-3.711,9.451-7.031,18.052-9.955,25.813-2.924,7.761-5.397,14.231-7.424,19.402-2.024,5.174-3.261,8.211-3.711,9.111-3.827,9.221-7.591,17.039-11.302,23.45-3.711,6.411-7.71,11.641-11.981,15.692-4.274,4.047-8.888,6.968-13.829,8.771-4.953,1.797-10.58,2.7-16.872,2.7-1.806,0-3.547-.06-5.231-.17-1.69-.116-3.097-.286-4.217-.507-1.58-.227-2.93-.563-4.053-1.013v-32.051c8.545,0,15.125-1.916,19.742-5.737,4.608-3.827,8.152-8.664,10.631-14.509l3.371-8.438-59.047-148.462Z"></path></g></g></g></svg>